Oxygen-Medium.ufo
<glyph name="quotedbl" format="1">
  <advance width="750"/>
  <unicode hex="0022"/>
  <outline>
    <contour>
      <point x="468" y="983" type="line"/>
      <point x="441" y="1489" type="line"/>
      <point x="630" y="1489" type="line"/>
      <point x="600" y="983" type="line"/>
    </contour>
    <contour>
      <point x="151" y="983" type="line"/>
      <point x="122" y="1489" type="line"/>
      <point x="313" y="1489" type="line"/>
      <point x="283" y="983" type="line"/>
    </contour>
  </outline>
</glyph>
<glyph name="numbersign" format="1">
  <advance width="1165"/>
  <unicode hex="0023"/>
  <outline>
    <contour>
      <point x="452" y="561" type="line"/>
      <point x="665" y="561" type="line"/>
      <point x="735" y="914" type="line"/>
      <point x="522" y="914" type="line"/>
    </contour>
    <contour>
      <point x="183" y="-19" type="line"/>
      <point x="258" y="407" type="line"/>
      <point x="70" y="407" type="line"/>
      <point x="80" y="561" type="line"/>
      <point x="286" y="561" type="line"/>
      <point x="344" y="913" type="line"/>
      <point x="148" y="913" type="line"/>
      <point x="156" y="1067" type="line"/>
      <point x="372" y="1067" type="line"/>
      <point x="454" y="1460" type="line"/>
      <point x="630" y="1460" type="line"/>
      <point x="552" y="1067" type="line"/>
      <point x="764" y="1067" type="line"/>
      <point x="837" y="1460" type="line"/>
      <point x="998" y="1460" type="line"/>
      <point x="928" y="1067" type="line"/>
      <point x="1089" y="1067" type="line"/>
      <point x="1076" y="914" type="line"/>
      <point x="899" y="914" type="line"/>
      <point x="836" y="561" type="line"/>
      <point x="1009" y="561" type="line"/>
      <point x="999" y="407" type="line"/>
      <point x="811" y="407" type="line"/>
      <point x="728" y="-19" type="line"/>
      <point x="553" y="-19" type="line"/>
      <point x="635" y="407" type="line"/>
      <point x="424" y="407" type="line"/>
      <point x="344" y="-19" type="line"/>
    </contour>
  </outline>
</glyph>
<glyph name="asterisk" format="1">
  <advance width="1104"/>
  <unicode hex="002A"/>
  <outline>
    <contour>
      <point x="367" y="571" type="line"/>
      <point x="185" y="675" type="line"/>
      <point x="430" y="994" type="line"/>
      <point x="79" y="1074" type="line"/>
      <point x="136" y="1264" type="line"/>
      <point x="482" y="1123" type="line"/>
      <point x="446" y="1512" type="line"/>
      <point x="655" y="1512" type="line"/>
      <point x="620" y="1123" type="line"/>
      <point x="968" y="1262" type="line"/>
      <point x="1024" y="1071" type="line"/>
      <point x="670" y="994" type="line"/>
      <point x="694" y="961"/>
      <point x="869" y="742"/>
      <point x="918" y="675" type="curve"/>
      <point x="888" y="656"/>
      <point x="769" y="590"/>
      <point x="739" y="571" type="curve"/>
      <point x="548" y="912" type="line"/>
    </contour>
  </outline>
</glyph>
<glyph name="plus" format="1">
  <advance width="1155"/>
  <unicode hex="002B"/>
  <outline>
    <contour>
      <point x="495" y="149" type="line"/>
      <point x="495" y="567" type="line"/>
      <point x="92" y="567" type="line"/>
      <point x="92" y="733" type="line"/>
      <point x="496" y="733" type="line"/>
      <point x="496" y="1148" type="line"/>
      <point x="666" y="1148" type="line"/>
      <point x="666" y="733" type="line"/>
      <point x="1065" y="733" type="line"/>
      <point x="1065" y="567" type="line"/>
      <point x="665" y="567" type="line"/>
      <point x="665" y="149" type="line"/>
    </contour>
  </outline>
</glyph>
<glyph name="hyphen" format="1">
  <advance width="674"/>
  <unicode hex="002D"/>
  <outline>
    <contour>
      <point x="78" y="469" type="line"/>
      <point x="78" y="646" type="line"/>
      <point x="597" y="646" type="line"/>
      <point x="597" y="469" type="line"/>
    </contour>
  </outline>
</glyph>
<glyph name="slash" format="1">
  <advance width="950"/>
  <unicode hex="002F"/>
  <outline>
    <contour>
      <point x="51" y="-202" type="line"/>
      <point x="698" y="1479" type="line"/>
      <point x="882" y="1479" type="line"/>
      <point x="232" y="-202" type="line"/>
    </contour>
  </outline>
</glyph>
<glyph name="one" format="1">
  <advance width="658"/>
  <unicode hex="0031"/>
  <outline>
    <contour>
      <point x="294" y="0" type="line"/>
      <point x="294" y="1262" type="line"/>
      <point x="247" y="1231"/>
      <point x="83" y="1164"/>
      <point x="40" y="1150" type="curve"/>
      <point x="40" y="1336" type="line"/>
      <point x="93" y="1359"/>
      <point x="273" y="1443"/>
      <point x="320" y="1476" type="curve"/>
      <point x="512" y="1476" type="line"/>
      <point x="512" y="0" type="line"/>
    </contour>
  </outline>
</glyph>
<glyph name="colon" format="1">
  <advance width="475"/>
  <unicode hex="003A"/>
  <outline>
    <contour>
      <point x="121" y="865" type="line"/>
      <point x="121" y="1114" type="line"/>
      <point x="359" y="1114" type="line"/>
      <point x="359" y="865" type="line"/>
    </contour>
    <contour>
      <point x="121" y="-15" type="line"/>
      <point x="121" y="235" type="line"/>
      <point x="359" y="235" type="line"/>
      <point x="359" y="-15" type="line"/>
    </contour>
  </outline>
</glyph>
<glyph name="semicolon" format="1">
  <advance width="480"/>
  <unicode hex="003B"/>
  <outline>
    <contour>
      <point x="147" y="865" type="line"/>
      <point x="147" y="1114" type="line"/>
      <point x="385" y="1114" type="line"/>
      <point x="385" y="865" type="line"/>
    </contour>
    <contour>
      <point x="121" y="-316" type="line"/>
      <point x="177" y="223" type="line"/>
      <point x="383" y="223" type="line"/>
      <point x="258" y="-316" type="line"/>
    </contour>
  </outline>
</glyph>
<glyph name="less" format="1">
  <advance width="1186"/>
  <unicode hex="003C"/>
  <outline>
    <contour>
      <point x="1072" y="173" type="line"/>
      <point x="109" y="626" type="line"/>
      <point x="109" y="738" type="line"/>
      <point x="1073" y="1225" type="line"/>
      <point x="1073" y="1041" type="line"/>
      <point x="336" y="687" type="line"/>
      <point x="1072" y="356" type="line"/>
    </contour>
  </outline>
</glyph>
<glyph name="equal" format="1">
  <advance width="1214"/>
  <unicode hex="003D"/>
  <outline>
    <contour>
      <point x="110" y="775" type="line"/>
      <point x="110" y="945" type="line"/>
      <point x="1104" y="945" type="line"/>
      <point x="1104" y="775" type="line"/>
    </contour>
    <contour>
      <point x="111" y="366" type="line"/>
      <point x="111" y="535" type="line"/>
      <point x="1105" y="535" type="line"/>
      <point x="1105" y="366" type="line"/>
    </contour>
  </outline>
</glyph>
<glyph name="greater" format="1">
  <advance width="1187"/>
  <unicode hex="003E"/>
  <outline>
    <contour>
      <point x="117" y="176" type="line"/>
      <point x="117" y="360" type="line"/>
      <point x="853" y="687" type="line"/>
      <point x="118" y="1046" type="line"/>
      <point x="118" y="1228" type="line"/>
      <point x="1081" y="737" type="line"/>
      <point x="1081" y="626" type="line"/>
    </contour>
  </outline>
</glyph>
<glyph name="A" format="1">
  <advance width="1333"/>
  <unicode hex="0041"/>
  <outline>
    <contour>
      <point x="458" y="615" type="curve"/>
      <point x="880" y="615" type="line"/>
      <point x="880" y="615"/>
      <point x="686" y="1209"/>
      <point x="673" y="1254" type="curve"/>
      <point x="661" y="1215"/>
      <point x="458" y="615"/>
    </contour>
    <contour>
      <point x="0" y="0" type="line"/>
      <point x="552" y="1473" type="line"/>
      <point x="792" y="1473" type="line"/>
      <point x="1333" y="0" type="line"/>
      <point x="1101" y="0" type="line"/>
      <point x="943" y="440" type="line"/>
      <point x="394" y="440" type="line"/>
      <point x="234" y="0" type="line"/>
    </contour>
  </outline>
</glyph>
<glyph name="F" format="1">
  <advance width="1075"/>
  <unicode hex="0046"/>
  <outline>
    <contour>
      <point x="165" y="0" type="line"/>
      <point x="165" y="1471" type="line"/>
      <point x="1011" y="1471" type="line"/>
      <point x="1003" y="1285" type="line"/>
      <point x="390" y="1285" type="line"/>
      <point x="390" y="822" type="line"/>
      <point x="973" y="822" type="line"/>
      <point x="973" y="639" type="line"/>
      <point x="390" y="639" type="line"/>
      <point x="390" y="0" type="line"/>
    </contour>
  </outline>
</glyph>
<glyph name="H" format="1">
  <advance width="1505"/>
  <unicode hex="0048"/>
  <outline>
    <contour>
      <point x="165" y="0" type="line"/>
      <point x="165" y="1471" type="line"/>
      <point x="391" y="1471" type="line"/>
      <point x="391" y="856" type="line"/>
      <point x="1114" y="856" type="line"/>
      <point x="1114" y="1471" type="line"/>
      <point x="1340" y="1471" type="line"/>
      <point x="1340" y="0" type="line"/>
      <point x="1114" y="0" type="line"/>
      <point x="1114" y="671" type="line"/>
      <point x="391" y="671" type="line"/>
      <point x="391" y="0" type="line"/>
    </contour>
  </outline>
</glyph>
<glyph name="K" format="1">
  <advance width="1303"/>
  <unicode hex="004B"/>
  <outline>
    <contour>
      <point x="165" y="0" type="line"/>
      <point x="165" y="1471" type="line"/>
      <point x="391" y="1471" type="line"/>
      <point x="391" y="781" type="line"/>
      <point x="458" y="869"/>
      <point x="919" y="1386"/>
      <point x="989" y="1471" type="curve"/>
      <point x="1261" y="1471" type="line"/>
      <point x="686" y="809" type="line"/>
      <point x="1302" y="0" type="line"/>
      <point x="1032" y="0" type="line"/>
      <point x="514" y="679" type="line"/>
      <point x="391" y="574" type="line"/>
      <point x="391" y="0" type="line"/>
    </contour>
  </outline>
</glyph>
<glyph name="L" format="1">
  <advance width="1048"/>
  <unicode hex="004C"/>
  <outline>
    <contour>
      <point x="165" y="0" type="line"/>
      <point x="165" y="1471" type="line"/>
      <point x="392" y="1471" type="line"/>
      <point x="392" y="188" type="line"/>
      <point x="1022" y="188" type="line"/>
      <point x="1015" y="0" type="line"/>
    </contour>
  </outline>
</glyph>
<glyph name="N" format="1">
  <advance width="1537"/>
  <unicode hex="004E"/>
  <outline>
    <contour>
      <point x="165" y="0" type="line"/>
      <point x="165" y="1471" type="line"/>
      <point x="409" y="1471" type="line"/>
      <point x="484" y="1355"/>
      <point x="1017" y="543"/>
      <point x="1093" y="427" type="curve" smooth="yes"/>
      <point x="1109" y="402"/>
      <point x="1155" y="336"/>
      <point x="1171" y="312" type="curve"/>
      <point x="1171" y="312"/>
      <point x="1164" y="644"/>
      <point x="1164" y="674" type="curve" smooth="yes"/>
      <point x="1164" y="1471" type="line"/>
      <point x="1371" y="1471" type="line"/>
      <point x="1371" y="0" type="line"/>
      <point x="1124" y="0" type="line"/>
      <point x="414" y="1092" type="line"/>
      <point x="364" y="1166" type="line"/>
      <point x="367" y="1088"/>
      <point x="373" y="864"/>
      <point x="373" y="793" type="curve" smooth="yes"/>
      <point x="373" y="0" type="line"/>
    </contour>
  </outline>
</glyph>
<glyph name="T" format="1">
  <advance width="1128"/>
  <unicode hex="0054"/>
  <outline>
    <contour>
      <point x="451" y="0" type="line"/>
      <point x="451" y="1284" type="line"/>
      <point x="11" y="1284" type="line"/>
      <point x="11" y="1471" type="line"/>
      <point x="1116" y="1471" type="line"/>
      <point x="1116" y="1284" type="line"/>
      <point x="677" y="1284" type="line"/>
      <point x="677" y="0" type="line"/>
    </contour>
  </outline>
</glyph>
<glyph name="Z" format="1">
  <advance width="1197"/>
  <unicode hex="005A"/>
  <outline>
    <contour>
      <point x="73" y="0" type="line"/>
      <point x="73" y="157" type="line"/>
      <point x="860" y="1284" type="line"/>
      <point x="101" y="1284" type="line"/>
      <point x="101" y="1471" type="line"/>
      <point x="1134" y="1471" type="line"/>
      <point x="1134" y="1306" type="line"/>
      <point x="352" y="188" type="line"/>
      <point x="1141" y="188" type="line"/>
      <point x="1137" y="0" type="line"/>
    </contour>
  </outline>
</glyph>
<glyph name="bracketleft" format="1">
  <advance width="662"/>
  <unicode hex="005B"/>
  <outline>
    <contour>
      <point x="139" y="-278" type="line"/>
      <point x="139" y="1496" type="line"/>
      <point x="598" y="1496" type="line"/>
      <point x="598" y="1338" type="line"/>
      <point x="354" y="1338" type="line"/>
      <point x="354" y="-120" type="line"/>
      <point x="598" y="-120" type="line"/>
      <point x="598" y="-278" type="line"/>
    </contour>
  </outline>
</glyph>
<glyph name="bracketright" format="1">
  <advance width="662"/>
  <unicode hex="005D"/>
  <outline>
    <contour>
      <point x="65" y="-278" type="line"/>
      <point x="65" y="-120" type="line"/>
      <point x="308" y="-120" type="line"/>
      <point x="308" y="1338" type="line"/>
      <point x="65" y="1338" type="line"/>
      <point x="65" y="1496" type="line"/>
      <point x="524" y="1496" type="line"/>
      <point x="524" y="-278" type="line"/>
    </contour>
  </outline>
</glyph>
<glyph name="asciicircum" format="1">
  <advance width="1155"/>
  <unicode hex="005E"/>
  <outline>
    <contour>
      <point x="51" y="567" type="line"/>
      <point x="506" y="1492" type="line"/>
      <point x="622" y="1492" type="line"/>
      <point x="1104" y="567" type="line"/>
      <point x="926" y="567" type="line"/>
      <point x="565" y="1271" type="line"/>
      <point x="231" y="567" type="line"/>
    </contour>
  </outline>
</glyph>
<glyph name="underscore" format="1">
  <advance width="1123"/>
  <unicode hex="005F"/>
  <outline>
    <contour>
      <point x="73" y="-312" type="line"/>
      <point x="73" y="-156" type="line"/>
      <point x="1052" y="-156" type="line"/>
      <point x="1052" y="-312" type="line"/>
    </contour>
  </outline>
</glyph>
<glyph name="grave" format="1">
  <advance width="574"/>
  <unicode hex="0060"/>
  <outline>
    <contour>
      <point x="362" y="1221" type="line"/>
      <point x="35" y="1606" type="line"/>
      <point x="315" y="1606" type="line"/>
      <point x="501" y="1221" type="line"/>
    </contour>
  </outline>
</glyph>
<glyph name="j" format="1">
  <advance width="489"/>
  <unicode hex="006A"/>
  <outline>
    <contour>
      <point x="163" y="1277" type="line"/>
      <point x="163" y="1489" type="line"/>
      <point x="382" y="1489" type="line"/>
      <point x="382" y="1277" type="line"/>
    </contour>
    <contour>
      <point x="-51" y="-462" type="line"/>
      <point x="-77" y="-287" type="line"/>
      <point x="-22" y="-287" type="line" smooth="yes"/>
      <point x="151" y="-287"/>
      <point x="163" y="-229"/>
      <point x="163" y="-64" type="curve" smooth="yes"/>
      <point x="163" y="1098" type="line"/>
      <point x="382" y="1098" type="line"/>
      <point x="382" y="-50" type="line" smooth="yes"/>
      <point x="382" y="-340"/>
      <point x="319" y="-462"/>
      <point x="4" y="-462" type="curve" smooth="yes"/>
    </contour>
  </outline>
</glyph>
<glyph name="k" format="1">
  <advance width="1112"/>
  <unicode hex="006B"/>
  <outline>
    <contour>
      <point x="139" y="0" type="line"/>
      <point x="139" y="1513" type="line"/>
      <point x="356" y="1527" type="line"/>
      <point x="356" y="795" type="line"/>
      <point x="353" y="611" type="line"/>
      <point x="360" y="619"/>
      <point x="385" y="644"/>
      <point x="392" y="652" type="curve" smooth="yes"/>
      <point x="517" y="794"/>
      <point x="681" y="954"/>
      <point x="821" y="1098" type="curve"/>
      <point x="1088" y="1098" type="line"/>
      <point x="634" y="633" type="line"/>
      <point x="1118" y="0" type="line"/>
      <point x="851" y="0" type="line"/>
      <point x="471" y="518" type="line"/>
      <point x="356" y="423" type="line"/>
      <point x="356" y="0" type="line"/>
    </contour>
  </outline>
</glyph>
<glyph name="z" format="1">
  <advance width="947"/>
  <unicode hex="007A"/>
  <outline>
    <contour>
      <point x="73" y="0" type="line"/>
      <point x="73" y="144" type="line"/>
      <point x="625" y="939" type="line"/>
      <point x="94" y="939" type="line"/>
      <point x="94" y="1098" type="line"/>
      <point x="868" y="1098" type="line"/>
      <point x="868" y="941" type="line"/>
      <point x="332" y="164" type="line"/>
      <point x="885" y="164" type="line"/>
      <point x="885" y="0" type="line"/>
    </contour>
  </outline>
</glyph>
<glyph name="braceleft" format="1">
  <advance width="761"/>
  <unicode hex="007B"/>
  <outline>
    <contour>
      <point x="675" y="-284" type="line"/>
      <point x="403" y="-284"/>
      <point x="283" y="-198"/>
      <point x="283" y="35" type="curve" smooth="yes"/>
      <point x="283" y="280" type="line" smooth="yes"/>
      <point x="283" y="444"/>
      <point x="244" y="529"/>
      <point x="62" y="529" type="curve"/>
      <point x="62" y="711" type="line"/>
      <point x="260" y="712"/>
      <point x="283" y="786"/>
      <point x="283" y="956" type="curve" smooth="yes"/>
      <point x="283" y="1225" type="line" smooth="yes"/>
      <point x="283" y="1444"/>
      <point x="417" y="1524"/>
      <point x="675" y="1524" type="curve"/>
      <point x="675" y="1353" type="line"/>
      <point x="527" y="1351"/>
      <point x="494" y="1300"/>
      <point x="494" y="1154" type="curve" smooth="yes"/>
      <point x="494" y="887" type="line" smooth="yes"/>
      <point x="494" y="756"/>
      <point x="432" y="682"/>
      <point x="295" y="617" type="curve"/>
      <point x="431" y="582"/>
      <point x="494" y="486"/>
      <point x="494" y="355" type="curve" smooth="yes"/>
      <point x="494" y="86" type="line" smooth="yes"/>
      <point x="494" y="-62"/>
      <point x="528" y="-110"/>
      <point x="675" y="-112" type="curve"/>
    </contour>
  </outline>
</glyph>
<glyph name="bar" format="1">
  <advance width="778"/>
  <unicode hex="007C"/>
  <outline>
    <contour>
      <point x="301" y="-389" type="line"/>
      <point x="301" y="1557" type="line"/>
      <point x="477" y="1557" type="line"/>
      <point x="477" y="-389" type="line"/>
    </contour>
  </outline>
</glyph>
<glyph name="cent" format="1">
  <advance width="1091"/>
  <unicode hex="00A2"/>
  <outline>
    <contour>
      <point x="561" y="276" type="curve"/>
      <point x="561" y="1074" type="line"/>
      <point x="404" y="1048"/>
      <point x="288" y="905"/>
      <point x="288" y="678" type="curve" smooth="yes"/>
      <point x="288" y="451"/>
      <point x="395" y="305"/>
    </contour>
    <contour>
      <point x="561" y="-108" type="line"/>
      <point x="561" y="107" type="line"/>
      <point x="261" y="131"/>
      <point x="76" y="361"/>
      <point x="76" y="685" type="curve"/>
      <point x="78" y="1002"/>
      <point x="279" y="1223"/>
      <point x="561" y="1244" type="curve"/>
      <point x="561" y="1446" type="line"/>
      <point x="659" y="1446" type="line"/>
      <point x="659" y="1243" type="line"/>
      <point x="768" y="1234"/>
      <point x="854" y="1202"/>
      <point x="916" y="1150" type="curve"/>
      <point x="873" y="1002" type="line"/>
      <point x="816" y="1041"/>
      <point x="736" y="1070"/>
      <point x="659" y="1077" type="curve"/>
      <point x="659" y="272" type="line"/>
      <point x="746" y="279"/>
      <point x="821" y="315"/>
      <point x="875" y="353" type="curve"/>
      <point x="922" y="203" type="line"/>
      <point x="851" y="147"/>
      <point x="761" y="114"/>
      <point x="659" y="107" type="curve"/>
      <point x="659" y="-108" type="line"/>
    </contour>
  </outline>
</glyph>
<glyph name="yen" format="1">
  <advance width="1166"/>
  <unicode hex="00A5"/>
  <outline>
    <contour>
      <point x="478" y="0" type="line"/>
      <point x="478" y="294" type="line"/>
      <point x="129" y="294" type="line"/>
      <point x="129" y="433" type="line"/>
      <point x="478" y="433" type="line"/>
      <point x="478" y="593" type="line"/>
      <point x="129" y="593" type="line"/>
      <point x="129" y="732" type="line"/>
      <point x="414" y="732" type="line"/>
      <point x="-12" y="1468" type="line"/>
      <point x="223" y="1468" type="line"/>
      <point x="584" y="823" type="line"/>
      <point x="948" y="1468" type="line"/>
      <point x="1177" y="1468" type="line"/>
      <point x="752" y="732" type="line"/>
      <point x="1041" y="732" type="line"/>
      <point x="1041" y="593" type="line"/>
      <point x="693" y="593" type="line"/>
      <point x="693" y="433" type="line"/>
      <point x="1042" y="433" type="line"/>
      <point x="1042" y="294" type="line"/>
      <point x="693" y="294" type="line"/>
      <point x="693" y="0" type="line"/>
    </contour>
  </outline>
</glyph>
<glyph name="brokenbar" format="1">
  <advance width="803"/>
  <unicode hex="00A6"/>
  <outline>
    <contour>
      <point x="314" y="844" type="line"/>
      <point x="314" y="1557" type="line"/>
      <point x="490" y="1557" type="line"/>
      <point x="490" y="844" type="line"/>
    </contour>
    <contour>
      <point x="314" y="-388" type="line"/>
      <point x="314" y="326" type="line"/>
      <point x="490" y="326" type="line"/>
      <point x="490" y="-388" type="line"/>
    </contour>
  </outline>
</glyph>
<glyph name="dieresis" format="1">
  <advance width="771"/>
  <unicode hex="00A8"/>
  <outline>
    <contour>
      <point x="503" y="1244" type="line"/>
      <point x="503" y="1479" type="line"/>
      <point x="680" y="1479" type="line"/>
      <point x="680" y="1244" type="line"/>
    </contour>
    <contour>
      <point x="97" y="1244" type="line"/>
      <point x="97" y="1479" type="line"/>
      <point x="272" y="1479" type="line"/>
      <point x="272" y="1244" type="line"/>
    </contour>
  </outline>
</glyph>
<glyph name="guillemotleft" format="1">
  <advance width="1044"/>
  <unicode hex="00AB"/>
  <outline>
    <contour>
      <point x="793" y="142" type="line"/>
      <point x="479" y="562" type="line"/>
      <point x="795" y="979" type="line"/>
      <point x="962" y="935" type="line"/>
      <point x="695" y="561" type="line"/>
      <point x="959" y="188" type="line"/>
    </contour>
    <contour>
      <point x="389" y="142" type="line"/>
      <point x="95" y="534" type="line"/>
      <point x="92" y="579" type="line"/>
      <point x="392" y="979" type="line"/>
      <point x="569" y="935" type="line"/>
      <point x="292" y="561" type="line"/>
      <point x="564" y="188" type="line"/>
    </contour>
  </outline>
</glyph>
<glyph name="logicalnot" format="1">
  <advance width="1258"/>
  <unicode hex="00AC"/>
  <outline>
    <contour>
      <point x="963" y="253" type="line"/>
      <point x="963" y="660" type="line"/>
      <point x="121" y="660" type="line"/>
      <point x="121" y="830" type="line"/>
      <point x="1128" y="830" type="line"/>
      <point x="1128" y="253" type="line"/>
    </contour>
  </outline>
</glyph>
<glyph name="macron" format="1">
  <advance width="981"/>
  <unicode hex="00AF"/>
  <outline>
    <contour>
      <point x="145" y="1435" type="line"/>
      <point x="145" y="1574" type="line"/>
      <point x="842" y="1574" type="line"/>
      <point x="842" y="1435" type="line"/>
    </contour>
  </outline>
</glyph>
<glyph name="plusminus" format="1">
  <advance width="1248"/>
  <unicode hex="00B1"/>
  <outline>
    <contour>
      <point x="152" y="0" type="line"/>
      <point x="152" y="161" type="line"/>
      <point x="1099" y="161" type="line"/>
      <point x="1099" y="0" type="line"/>
    </contour>
    <contour>
      <point x="539" y="248" type="line"/>
      <point x="539" y="641" type="line"/>
      <point x="152" y="641" type="line"/>
      <point x="152" y="810" type="line"/>
      <point x="538" y="810" type="line"/>
      <point x="538" y="1200" type="line"/>
      <point x="708" y="1200" type="line"/>
      <point x="708" y="810" type="line"/>
      <point x="1099" y="810" type="line"/>
      <point x="1099" y="641" type="line"/>
      <point x="710" y="641" type="line"/>
      <point x="710" y="248" type="line"/>
    </contour>
  </outline>
</glyph>
<glyph name="acute" format="1">
  <advance width="628"/>
  <unicode hex="00B4"/>
  <outline>
    <contour>
      <point x="162" y="1220" type="line"/>
      <point x="340" y="1606" type="line"/>
      <point x="617" y="1606" type="line"/>
      <point x="298" y="1220" type="line"/>
    </contour>
  </outline>
</glyph>
<glyph name="paragraph" format="1">
  <advance width="1139"/>
  <unicode hex="00B6"/>
  <outline>
    <contour>
      <point x="407" y="-154" type="line"/>
      <point x="407" y="812" type="line"/>
      <point x="193" y="823"/>
      <point x="48" y="989"/>
      <point x="48" y="1175" type="curve" smooth="yes"/>
      <point x="48" y="1392"/>
      <point x="230" y="1521"/>
      <point x="540" y="1521" type="curve" smooth="yes"/>
      <point x="980" y="1521" type="line"/>
      <point x="980" y="1368" type="line"/>
      <point x="901" y="1368" type="line"/>
      <point x="901" y="-154" type="line"/>
      <point x="759" y="-154" type="line"/>
      <point x="759" y="1368" type="line"/>
      <point x="569" y="1368" type="line"/>
      <point x="569" y="-154" type="line"/>
    </contour>
  </outline>
</glyph>
<glyph name="periodcentered" format="1">
  <advance width="443"/>
  <unicode hex="00B7"/>
  <outline>
    <contour>
      <point x="118" y="521" type="line"/>
      <point x="118" y="749" type="line"/>
      <point x="325" y="749" type="line"/>
      <point x="325" y="521" type="line"/>
    </contour>
  </outline>
</glyph>
<glyph name="cedilla" format="1">
  <advance width="592"/>
  <unicode hex="00B8"/>
  <outline>
    <contour>
      <point x="86" y="-381" type="line"/>
      <point x="204" y="20" type="line"/>
      <point x="321" y="20" type="line"/>
      <point x="270" y="-381" type="line"/>
    </contour>
  </outline>
</glyph>
<glyph name="uni00B9" format="1">
  <advance width="677"/>
  <unicode hex="00B9"/>
  <outline>
    <contour>
      <point x="143" y="623" type="line"/>
      <point x="143" y="748" type="line"/>
      <point x="274" y="748" type="line"/>
      <point x="274" y="1352" type="line"/>
      <point x="252" y="1338"/>
      <point x="153" y="1291"/>
      <point x="127" y="1277" type="curve"/>
      <point x="127" y="1404" type="line"/>
      <point x="164" y="1422"/>
      <point x="284" y="1486"/>
      <point x="308" y="1510" type="curve"/>
      <point x="430" y="1509" type="line"/>
      <point x="430" y="748" type="line"/>
      <point x="563" y="748" type="line"/>
      <point x="563" y="623" type="line"/>
    </contour>
  </outline>
</glyph>
<glyph name="guillemotright" format="1">
  <advance width="1096"/>
  <unicode hex="00BB"/>
  <outline>
    <contour>
      <point x="690" y="142" type="line"/>
      <point x="517" y="188" type="line"/>
      <point x="790" y="562" type="line"/>
      <point x="521" y="935" type="line"/>
      <point x="694" y="979" type="line"/>
      <point x="999" y="560" type="line"/>
    </contour>
    <contour>
      <point x="275" y="142" type="line"/>
      <point x="108" y="188" type="line"/>
      <point x="375" y="562" type="line"/>
      <point x="110" y="935" type="line"/>
      <point x="277" y="979" type="line"/>
      <point x="591" y="560" type="line"/>
    </contour>
  </outline>
</glyph>
<glyph name="multiply" format="1">
  <advance width="1209"/>
  <unicode hex="00D7"/>
  <outline>
    <contour>
      <point x="325" y="163" type="line"/>
      <point x="203" y="281" type="line"/>
      <point x="491" y="593" type="line"/>
      <point x="203" y="905" type="line"/>
      <point x="324" y="1023" type="line"/>
      <point x="613" y="719" type="line"/>
      <point x="901" y="1023" type="line"/>
      <point x="1023" y="905" type="line"/>
      <point x="734" y="593" type="line"/>
      <point x="774" y="554"/>
      <point x="983" y="320"/>
      <point x="1023" y="281" type="curve"/>
      <point x="900" y="163" type="line"/>
      <point x="613" y="465" type="line"/>
    </contour>
  </outline>
</glyph>
<glyph name="divide" format="1">
  <advance width="1343"/>
  <unicode hex="00F7"/>
  <outline>
    <contour>
      <point x="544" y="904" type="line"/>
      <point x="544" y="1149" type="line"/>
      <point x="801" y="1149" type="line"/>
      <point x="801" y="904" type="line"/>
    </contour>
    <contour>
      <point x="141" y="505" type="line"/>
      <point x="141" y="674" type="line"/>
      <point x="1193" y="674" type="line"/>
      <point x="1193" y="505" type="line"/>
    </contour>
    <contour>
      <point x="544" y="22" type="line"/>
      <point x="544" y="266" type="line"/>
      <point x="781" y="266" type="line"/>
      <point x="781" y="22" type="line"/>
    </contour>
  </outline>
</glyph>
<glyph name="dotlessi" format="1">
  <advance width="493"/>
  <unicode hex="0131"/>
  <outline>
    <contour>
      <point x="132" y="0" type="line"/>
      <point x="132" y="1098" type="line"/>
      <point x="347" y="1098" type="line"/>
      <point x="347" y="0" type="line"/>
    </contour>
  </outline>
</glyph>
<glyph name="Lslash" format="1">
  <advance width="988"/>
  <unicode hex="0141"/>
  <outline>
    <contour>
      <point x="139" y="0" type="line"/>
      <point x="139" y="597" type="line"/>
      <point x="-11" y="512" type="line"/>
      <point x="-11" y="680" type="line"/>
      <point x="139" y="766" type="line"/>
      <point x="139" y="1478" type="line"/>
      <point x="365" y="1478" type="line"/>
      <point x="365" y="895" type="line"/>
      <point x="700" y="1083" type="line"/>
      <point x="700" y="911" type="line"/>
      <point x="365" y="725" type="line"/>
      <point x="365" y="180" type="line"/>
      <point x="1001" y="180" type="line"/>
      <point x="988" y="0" type="line"/>
    </contour>
  </outline>
</glyph>
<glyph name="circumflex" format="1">
  <advance width="786"/>
  <unicode hex="02C6"/>
  <outline>
    <contour>
      <point x="75" y="1203" type="line"/>
      <point x="296" y="1589" type="line"/>
      <point x="506" y="1589" type="line"/>
      <point x="728" y="1203" type="line"/>
      <point x="567" y="1203" type="line"/>
      <point x="399" y="1447" type="line"/>
      <point x="232" y="1203" type="line"/>
    </contour>
  </outline>
</glyph>
<glyph name="caron" format="1">
  <advance width="785"/>
  <unicode hex="02C7"/>
  <outline>
    <contour>
      <point x="299" y="1220" type="line"/>
      <point x="71" y="1589" type="line"/>
      <point x="239" y="1589" type="line"/>
      <point x="399" y="1339" type="line"/>
      <point x="562" y="1589" type="line"/>
      <point x="733" y="1589" type="line"/>
      <point x="506" y="1220" type="line"/>
    </contour>
  </outline>
</glyph>
<glyph name="ring" format="1">
  <advance width="397"/>
  <unicode hex="02DA"/>
  <outline>
    <contour>
      <point x="198" y="102" type="curve" smooth="yes"/>
      <point x="27.1945" y="102"/>
      <point x="-58.9074" y="225.403"/>
      <point x="-58.9074" y="348.473" type="curve" smooth="yes"/>
      <point x="-58.9074" y="470.88"/>
      <point x="26.2698" y="592.957"/>
      <point x="198" y="592.957" type="curve" smooth="yes"/>
      <point x="369.727" y="592.957"/>
      <point x="455.936" y="469.889"/>
      <point x="455.936" y="346.986" type="curve" smooth="yes"/>
      <point x="455.936" y="224.411"/>
      <point x="370.187" y="102"/>
    </contour>
    <contour>
      <point x="198.837" y="203.438" type="curve" smooth="yes"/>
      <point x="292.418" y="203.438"/>
      <point x="339.855" y="276.111"/>
      <point x="339.855" y="348.455" type="curve" smooth="yes"/>
      <point x="339.855" y="420.149"/>
      <point x="293.268" y="491.52"/>
      <point x="198.837" y="491.52" type="curve" smooth="yes"/>
      <point x="104.461" y="491.52"/>
      <point x="57.2565" y="419.482"/>
      <point x="57.2565" y="347.453" type="curve" smooth="yes"/>
      <point x="57.2565" y="275.441"/>
      <point x="104.439" y="203.438"/>
    </contour>
  </outline>
</glyph>
<glyph name="tilde" format="1">
  <advance width="397"/>
  <unicode hex="02dc"/>
  <outline>
    <contour>
      <point x="-67.5" y="102" type="curve" smooth="no"/>
      <point x="-133.5" y="228" type="line" smooth="no"/>
      <point x="-98.5" y="309.194"/>
      <point x="-37.5996" y="374"/>
      <point x="62.5" y="374" type="curve" smooth="yes"/>
      <point x="147.558" y="374"/>
      <point x="271.821" y="270"/>
      <point x="345.5" y="270" type="curve" smooth="yes"/>
      <point x="389.849" y="270"/>
      <point x="429.816" y="311.71"/>
      <point x="466.5" y="382" type="curve" smooth="no"/>
      <point x="530.5" y="265" type="line" smooth="no"/>
      <point x="498.904" y="183.387"/>
      <point x="431.375" y="116"/>
      <point x="346.5" y="116" type="curve" smooth="yes"/>
      <point x="254.702" y="116"/>
      <point x="143.305" y="223"/>
      <point x="56.5" y="223" type="curve" smooth="yes"/>
      <point x="10.0703" y="223"/>
      <point x="-41.7412" y="165.643"/>
    </contour>
  </outline>
</glyph>
<glyph name="hungarumlaut" format="1">
  <advance width="906"/>
  <unicode hex="02DD"/>
  <outline>
    <contour>
      <point x="415" y="1203" type="line"/>
      <point x="641" y="1552" type="line"/>
      <point x="831" y="1552" type="line"/>
      <point x="534" y="1203" type="line"/>
    </contour>
    <contour>
      <point x="140" y="1203" type="line"/>
      <point x="364" y="1552" type="line"/>
      <point x="556" y="1552" type="line"/>
      <point x="258" y="1203" type="line"/>
    </contour>
  </outline>
</glyph>
<glyph name="uni0326" format="1">
  <advance width="596"/>
  <unicode hex="0326"/>
  <outline>
    <contour>
      <point x="125" y="-664" type="line"/>
      <point x="228" y="-156" type="line"/>
      <point x="425" y="-156" type="line"/>
      <point x="269" y="-664" type="line"/>
    </contour>
  </outline>
</glyph>
<glyph name="quoteright" format="1">
  <advance width="470"/>
  <unicode hex="2019"/>
  <outline>
    <contour>
      <point x="94" y="1155.13" type="line"/>
      <point x="195" y="1638.13" type="line"/>
      <point x="385" y="1638.13" type="line"/>
      <point x="237" y="1155.13" type="line"/>
    </contour>
  </outline>
</glyph>
<glyph name="quotesinglbase" format="1">
  <advance width="533"/>
  <unicode hex="201A"/>
  <outline>
    <contour>
      <point x="121" y="-269" type="line"/>
      <point x="221" y="214" type="line"/>
      <point x="414" y="214" type="line"/>
      <point x="266" y="-269" type="line"/>
    </contour>
  </outline>
</glyph>
<glyph name="quotedblleft" format="1">
  <advance width="776"/>
  <unicode hex="201c"/>
  <outline>
    <contour>
      <point x="376" y="1155" type="line" smooth="no"/>
      <point x="548" y="1638" type="line" smooth="no"/>
      <point x="663" y="1638" type="line" smooth="no"/>
      <point x="534" y="1154" type="line" smooth="no"/>
    </contour>
    <contour>
      <point x="68" y="1155" type="line" smooth="no"/>
      <point x="244" y="1638" type="line" smooth="no"/>
      <point x="357" y="1638" type="line" smooth="no"/>
      <point x="231" y="1154" type="line" smooth="no"/>
    </contour>
  </outline>
</glyph>
<glyph name="quotedblbase" format="1">
  <advance width="919"/>
  <unicode hex="201E"/>
  <outline>
    <contour>
      <point x="479" y="-269" type="line"/>
      <point x="584" y="214" type="line"/>
      <point x="780" y="214" type="line"/>
      <point x="630" y="-269" type="line"/>
    </contour>
    <contour>
      <point x="143" y="-269" type="line"/>
      <point x="244" y="214" type="line"/>
      <point x="443" y="214" type="line"/>
      <point x="291" y="-269" type="line"/>
    </contour>
  </outline>
</glyph>
<glyph name="daggerdbl" format="1">
  <advance width="975"/>
  <unicode hex="2021"/>
  <outline>
    <contour>
      <point x="407" y="36" type="line"/>
      <point x="407" y="413" type="line"/>
      <point x="117" y="413" type="line"/>
      <point x="117" y="564" type="line"/>
      <point x="407" y="564" type="line"/>
      <point x="407" y="1006" type="line"/>
      <point x="121" y="1006" type="line"/>
      <point x="121" y="1158" type="line"/>
      <point x="407" y="1158" type="line"/>
      <point x="407" y="1510" type="line"/>
      <point x="575" y="1510" type="line"/>
      <point x="575" y="1158" type="line"/>
      <point x="865" y="1158" type="line"/>
      <point x="865" y="1006" type="line"/>
      <point x="575" y="1006" type="line"/>
      <point x="575" y="564" type="line"/>
      <point x="860" y="564" type="line"/>
      <point x="860" y="413" type="line"/>
      <point x="575" y="413" type="line"/>
      <point x="575" y="36" type="line"/>
    </contour>
  </outline>
</glyph>
<glyph name="guilsinglleft" format="1">
  <advance width="601"/>
  <unicode hex="2039"/>
  <outline>
    <contour>
      <point x="337" y="178" type="line"/>
      <point x="85" y="575" type="line"/>
      <point x="342" y="973" type="line"/>
      <point x="516" y="973" type="line"/>
      <point x="268" y="575" type="line"/>
      <point x="510" y="178" type="line"/>
    </contour>
  </outline>
</glyph>
<glyph name="guilsinglright" format="1">
  <advance width="599"/>
  <unicode hex="203A"/>
  <outline>
    <contour>
      <point x="87" y="178" type="line"/>
      <point x="334" y="577" type="line"/>
      <point x="94" y="973" type="line"/>
      <point x="266" y="973" type="line"/>
      <point x="519" y="577" type="line"/>
      <point x="260" y="178" type="line"/>
    </contour>
  </outline>
</glyph>
<glyph name="uni2074" format="1">
  <advance width="816"/>
  <unicode hex="2074"/>
  <outline>
    <contour>
      <point x="251" y="965" type="line"/>
      <point x="428" y="965" type="line"/>
      <point x="428" y="965"/>
      <point x="428" y="1246"/>
      <point x="429" y="1263" type="curve"/>
    </contour>
    <contour>
      <point x="430" y="642" type="line"/>
      <point x="430" y="830" type="line"/>
      <point x="88" y="830" type="line"/>
      <point x="88" y="940" type="line"/>
      <point x="425" y="1480" type="line"/>
      <point x="566" y="1480" type="line"/>
      <point x="566" y="965" type="line"/>
      <point x="664" y="965" type="line"/>
      <point x="676" y="830" type="line"/>
      <point x="564" y="830" type="line"/>
      <point x="564" y="642" type="line"/>
    </contour>
  </outline>
</glyph>
<glyph name="product" format="1">
  <advance width="1499"/>
  <unicode hex="220F"/>
  <outline>
    <contour>
      <point x="186" y="-133" type="line"/>
      <point x="186" y="1471" type="line"/>
      <point x="1322" y="1471" type="line"/>
      <point x="1322" y="-133" type="line"/>
      <point x="1122" y="-133" type="line"/>
      <point x="1122" y="1296" type="line"/>
      <point x="385" y="1296" type="line"/>
      <point x="385" y="-133" type="line"/>
    </contour>
  </outline>
</glyph>
<glyph name="summation" format="1">
  <advance width="1277"/>
  <unicode hex="2211"/>
  <outline>
    <contour>
      <point x="70" y="-345" type="line"/>
      <point x="70" y="-235" type="line"/>
      <point x="685" y="580" type="line"/>
      <point x="91" y="1378" type="line"/>
      <point x="91" y="1492" type="line"/>
      <point x="1173" y="1492" type="line"/>
      <point x="1173" y="1319" type="line"/>
      <point x="352" y="1319" type="line"/>
      <point x="917" y="588" type="line"/>
      <point x="325" y="-165" type="line"/>
      <point x="1214" y="-165" type="line"/>
      <point x="1214" y="-345" type="line"/>
    </contour>
  </outline>
</glyph>
<glyph name="radical" format="1">
  <advance width="1255"/>
  <unicode hex="221A"/>
  <outline>
    <contour>
      <point x="581" y="-160" type="line"/>
      <point x="255" y="710" type="line"/>
      <point x="94" y="681" type="line"/>
      <point x="72" y="821" type="line"/>
      <point x="365" y="879" type="line"/>
      <point x="600" y="233" type="line"/>
      <point x="645" y="92" type="line"/>
      <point x="725" y="425"/>
      <point x="907" y="1151"/>
      <point x="1037" y="1673" type="curve"/>
      <point x="1184" y="1673" type="line"/>
      <point x="732" y="-160" type="line"/>
    </contour>
  </outline>
</glyph>
<glyph name="lozenge" format="1">
  <advance width="1188"/>
  <unicode hex="25CA"/>
  <outline>
    <contour>
      <point x="590" y="129" type="curve"/>
      <point x="703" y="338"/>
      <point x="819" y="542"/>
      <point x="931" y="746" type="curve"/>
      <point x="821" y="951"/>
      <point x="708" y="1155"/>
      <point x="601" y="1361" type="curve"/>
      <point x="487" y="1154"/>
      <point x="372" y="950"/>
      <point x="260" y="747" type="curve"/>
      <point x="370" y="541"/>
      <point x="478" y="333"/>
    </contour>
    <contour>
      <point x="531" y="-47" type="line"/>
      <point x="93" y="745" type="line"/>
      <point x="538" y="1541" type="line"/>
      <point x="659" y="1541" type="line"/>
      <point x="1098" y="747" type="line"/>
      <point x="650" y="-47" type="line"/>
    </contour>
  </outline>
</glyph>
